<?xml version="1.0" encoding="UTF-8"?><svg id="Layer_1" xmlns="http://www.w3.org/2000/svg" xmlns:xlink="http://www.w3.org/1999/xlink" viewBox="0 0 1920 1080"><defs><style>.cls-1{fill:none;}.cls-2{fill:url(#linear-gradient);}.cls-3{clip-path:url(#clippath);}.cls-4{fill:#e6f4f4;}.cls-5{fill:#071e2b;}.cls-6{clip-path:url(#clippath-1);}.cls-7{clip-path:url(#clippath-4);}.cls-8{clip-path:url(#clippath-3);}.cls-9{clip-path:url(#clippath-2);}.cls-10{clip-path:url(#clippath-7);}.cls-11{clip-path:url(#clippath-8);}.cls-12{clip-path:url(#clippath-6);}.cls-13{clip-path:url(#clippath-5);}.cls-14{clip-path:url(#clippath-9);}.cls-15{fill:#d1edee;stroke:#e6f4f4;stroke-miterlimit:10;stroke-width:.5px;}.cls-16{clip-path:url(#clippath-20);}.cls-17{clip-path:url(#clippath-14);}.cls-18{clip-path:url(#clippath-13);}.cls-19{clip-path:url(#clippath-12);}.cls-20{clip-path:url(#clippath-10);}.cls-21{clip-path:url(#clippath-15);}.cls-22{clip-path:url(#clippath-17);}.cls-23{clip-path:url(#clippath-16);}.cls-24{clip-path:url(#clippath-19);}.cls-25{clip-path:url(#clippath-11);}.cls-26{clip-path:url(#clippath-18);}</style><clipPath id="clippath"><path class="cls-1" d="M323.5,266.81l8.4,23.89c-3.7,1.3-7.38,2.73-10.94,4.26l-9.97-23.28c4.07-1.74,8.28-3.38,12.5-4.87Z"/></clipPath><linearGradient id="linear-gradient" x1="133.73" y1="340.93" x2="528.85" y2="506.19" gradientTransform="translate(26.64 -23.71) scale(.87 1.09)" gradientUnits="userSpaceOnUse"><stop offset="0" stop-color="#5bd8ae"/><stop offset=".49" stop-color="#4db9f4"/><stop offset=".99" stop-color="#6b6bf2"/></linearGradient><clipPath id="clippath-1"><path class="cls-1" d="M295.84,278.95l11.93,22.33c-3.43,1.83-6.83,3.81-10.1,5.87l-13.5-21.43c3.77-2.38,7.7-4.65,11.66-6.77Z"/></clipPath><clipPath id="clippath-2"><path class="cls-1" d="M270.33,295.35l15.38,20.11c-3.08,2.36-6.11,4.85-8.99,7.41l-16.82-18.93c3.34-2.97,6.85-5.87,10.43-8.6Z"/></clipPath><clipPath id="clippath-3"><path class="cls-1" d="M247.81,315.73l18.49,17.31c-2.63,2.81-5.21,5.77-7.65,8.8l-19.7-15.91c2.83-3.51,5.81-6.94,8.87-10.2Z"/></clipPath><clipPath id="clippath-4"><path class="cls-1" d="M228.96,339.52l21.06,14.06c-2.15,3.23-4.22,6.57-6.14,9.93l-22-12.53c2.21-3.88,4.6-7.74,7.08-11.46Z"/></clipPath><clipPath id="clippath-5"><path class="cls-1" d="M214.19,365.95l23.01,10.57c-1.63,3.53-3.15,7.17-4.53,10.82l-23.67-9c1.59-4.17,3.34-8.34,5.2-12.39Z"/></clipPath><clipPath id="clippath-6"><path class="cls-1" d="M203.69,394.28l24.34,6.98c-1.08,3.76-2.04,7.6-2.87,11.41l-24.74-5.39c.95-4.34,2.05-8.72,3.27-13Z"/></clipPath><clipPath id="clippath-7"><path class="cls-1" d="M197.51,423.79l25.1,3.36c-.52,3.89-.92,7.84-1.2,11.73l-25.26-1.77c.31-4.42,.77-8.9,1.36-13.32Z"/></clipPath><clipPath id="clippath-8"><path class="cls-1" d="M195.65,453.86l25.32-.26c.04,3.93,.2,7.9,.49,11.79l-25.26,1.85c-.32-4.41-.51-8.91-.56-13.37Z"/></clipPath><clipPath id="clippath-9"><path class="cls-1" d="M198.1,483.88l25.03-3.88c.6,3.89,1.33,7.78,2.17,11.58l-24.72,5.47c-.96-4.32-1.79-8.74-2.47-13.16Z"/></clipPath><clipPath id="clippath-10"><path class="cls-1" d="M204.87,513.27l24.19-7.5c1.16,3.75,2.46,7.49,3.85,11.11l-23.64,9.08c-1.59-4.14-3.07-8.41-4.39-12.69Z"/></clipPath><clipPath id="clippath-11"><path class="cls-1" d="M215.96,541.39l22.78-11.07c1.71,3.52,3.56,7.01,5.48,10.35l-21.95,12.62c-2.21-3.85-4.33-7.85-6.3-11.9Z"/></clipPath><clipPath id="clippath-12"><path class="cls-1" d="M231.3,567.51l20.75-14.52c2.22,3.18,4.59,6.31,7.04,9.32l-19.64,15.99c-2.83-3.48-5.57-7.11-8.15-10.79Z"/></clipPath><clipPath id="clippath-13"><path class="cls-1" d="M250.71,590.89l18.09-17.72c2.71,2.77,5.56,5.47,8.45,8.02l-16.74,19c-3.36-2.96-6.66-6.08-9.81-9.3Z"/></clipPath><clipPath id="clippath-14"><path class="cls-1" d="M284.87,618.31c-3.81-2.38-7.57-4.92-11.18-7.55l14.92-20.45c3.12,2.28,6.37,4.47,9.66,6.53l-13.4,21.48Z"/></clipPath><clipPath id="clippath-15"><path class="cls-1" d="M311.74,632.24c-4.12-1.74-8.22-3.65-12.19-5.66l11.44-22.59c3.46,1.75,7.03,3.41,10.62,4.93l-9.87,23.32Z"/></clipPath><clipPath id="clippath-16"><path class="cls-1" d="M340.27,641.91c-4.32-1.13-8.64-2.4-12.83-3.78l7.92-24.05c3.69,1.22,7.5,2.34,11.3,3.33l-6.39,24.5Z"/></clipPath><clipPath id="clippath-17"><path class="cls-1" d="M345.98,286.37l-6.49-24.48c4.23-1.12,8.6-2.14,12.99-3.03l5.02,24.82c-3.9,.79-7.77,1.69-11.51,2.68Z"/></clipPath><clipPath id="clippath-18"><path class="cls-1" d="M372.12,281.28l-3.25-25.11c4.31-.56,8.74-1.01,13.17-1.35l1.94,25.25c-4,.31-7.98,.72-11.86,1.22Z"/></clipPath><clipPath id="clippath-19"><path class="cls-1" d="M409.99,280.47c-3.86-.4-7.8-.66-11.7-.8l.87-25.31c4.47,.15,8.98,.46,13.41,.92l-2.58,25.19Z"/></clipPath><clipPath id="clippath-20"><path class="cls-1" d="M435.92,285.15c-3.77-.98-7.61-1.85-11.43-2.57l4.72-24.88c4.39,.83,8.8,1.83,13.12,2.95l-6.4,24.5Z"/></clipPath></defs><path class="cls-4" d="M0-.11V1080.11H1920V-.11H0Z"/><g><path class="cls-5" d="M588.38,416.08h14.33v233.28h-14.33v-117.8h-135.8v117.8h-14.33v-233.28h14.33v101.14h135.8v-101.14Z"/><path class="cls-5" d="M723.18,653.69c-15.33,0-29.3-3.94-41.91-11.83-12.61-7.89-22.66-18.47-30.16-31.74-7.5-13.27-11.25-27.96-11.25-44.07,0-12.22,2.17-23.63,6.5-34.24,4.33-10.61,10.3-19.94,17.91-27.99,7.61-8.05,16.47-14.36,26.58-18.91,10.11-4.55,20.88-6.83,32.33-6.83s23.08,2.31,33.24,6.91c10.16,4.61,18.97,11.11,26.41,19.5,7.44,8.39,13.19,18.33,17.25,29.83,4.05,11.5,6.02,24.14,5.92,37.91h-151.3c1.11,12.89,4.86,24.36,11.25,34.41,6.39,10.05,14.52,18.02,24.41,23.91,9.89,5.89,20.83,8.83,32.83,8.83,13.22,0,25.1-3.5,35.66-10.5,10.55-7,18.94-16.6,25.16-28.83l14.5,3.33c-6.66,14.77-16.72,26.85-30.16,36.24-13.44,9.39-28.49,14.08-45.16,14.08Zm-68.82-94.31h137.3c-.56-12.11-3.97-23.3-10.25-33.58-6.28-10.27-14.5-18.52-24.66-24.74-10.16-6.22-21.36-9.33-33.58-9.33s-23.49,3.03-33.49,9.08c-10,6.06-18.14,14.22-24.41,24.49-6.28,10.28-9.91,21.64-10.91,34.08Z"/><path class="cls-5" d="M981.91,482.73h14.33v166.63h-14.33l-.33-36.32c-5.78,12.11-14.16,21.91-25.16,29.41-11,7.5-24.16,11.25-39.49,11.25-12.11,0-23.47-2.28-34.08-6.83-10.61-4.55-19.94-10.88-27.99-18.99-8.06-8.11-14.36-17.44-18.91-27.99-4.56-10.55-6.83-21.94-6.83-34.16s2.28-23.47,6.83-34.08c4.55-10.61,10.83-19.91,18.83-27.91,8-8,17.27-14.27,27.83-18.83,10.55-4.55,21.83-6.83,33.83-6.83,15.55,0,28.88,3.75,39.99,11.25,11.11,7.5,19.72,17.36,25.83,29.58l-.33-36.16Zm-65.15,156.8c13.55,0,25.1-3.3,34.66-9.91,9.55-6.61,16.86-15.5,21.91-26.66,5.05-11.16,7.58-23.47,7.58-36.91s-2.56-26.24-7.66-37.41c-5.11-11.16-12.47-20.02-22.08-26.58-9.61-6.55-21.08-9.83-34.41-9.83s-25.72,3.31-36.82,9.91c-11.11,6.61-19.94,15.52-26.49,26.74-6.56,11.22-9.83,23.61-9.83,37.16s3.39,26.22,10.16,37.32c6.77,11.11,15.69,19.91,26.74,26.41,11.05,6.5,23.13,9.75,36.24,9.75Z"/><path class="cls-5" d="M1036.46,649.36v-249.94h14.33v249.94h-14.33Z"/><path class="cls-5" d="M1171.13,497.06h-43.66l-.33,152.3h-14.33l.33-152.3h-32.99v-14.33h32.99l-.33-52.32h14.33l.33,52.32h43.66v14.33Z"/><path class="cls-5" d="M1339.98,547.39v101.98h-14.33v-100.48c0-10.44-2.53-19.91-7.58-28.41-5.06-8.5-11.86-15.3-20.41-20.41-8.56-5.11-18-7.67-28.33-7.67s-19.94,2.56-28.49,7.67c-8.56,5.11-15.36,11.91-20.41,20.41-5.06,8.5-7.58,17.97-7.58,28.41v100.48h-14.33v-249.94h14.33v110.47c6-9.66,14.11-17.38,24.33-23.16,10.22-5.77,21.38-8.66,33.49-8.66,12.77,0,24.41,3.11,34.91,9.33,10.5,6.22,18.86,14.58,25.08,25.08,6.22,10.5,9.33,22.14,9.33,34.91Z"/><path class="cls-5" d="M1429.45,649.36l-84.65-233.28h15.16l77.31,213.45,77.82-213.45h15.16l-84.98,233.28h-15.83Z"/><path class="cls-5" d="M1560.62,449.58c-2.56,0-4.78-.86-6.67-2.58-1.89-1.72-2.83-3.92-2.83-6.58s.94-5,2.83-6.66c1.89-1.67,4.11-2.5,6.67-2.5s4.75,.83,6.58,2.5c1.83,1.67,2.75,3.83,2.75,6.5s-.89,5.03-2.67,6.75c-1.78,1.72-4,2.58-6.67,2.58Zm-7.33,33.16h14.33v166.63h-14.33v-166.63Z"/><path class="cls-5" d="M1663.03,652.69c-9.33-.11-18.47-1.75-27.41-4.92-8.94-3.17-16.72-7.47-23.33-12.91-6.61-5.44-11.14-11.5-13.58-18.16l12.83-5.5c2,5.44,5.86,10.28,11.58,14.5,5.72,4.22,12.25,7.53,19.58,9.91,7.33,2.39,14.33,3.58,20.99,3.58,8.11,0,15.66-1.39,22.66-4.17,7-2.77,12.69-6.69,17.08-11.75,4.39-5.05,6.58-10.91,6.58-17.58,0-7.11-2.31-12.72-6.92-16.83-4.61-4.11-10.47-7.44-17.58-10-7.11-2.55-14.5-5-22.16-7.33-12.44-3.67-23.13-7.33-32.08-11-8.94-3.67-15.8-8.27-20.58-13.83-4.78-5.55-7.16-13-7.16-22.33s2.83-18.02,8.5-25.08c5.67-7.05,13.08-12.52,22.24-16.41,9.16-3.89,18.97-5.83,29.41-5.83,13.77,0,26.24,3.03,37.41,9.08,11.16,6.06,18.91,13.97,23.24,23.74l-12,7c-2.22-5.44-5.89-10.11-11-14-5.11-3.89-10.94-6.91-17.5-9.08-6.56-2.17-13.11-3.25-19.66-3.25-8.22,0-15.89,1.33-22.99,4-7.11,2.67-12.86,6.53-17.25,11.58-4.39,5.06-6.58,11.08-6.58,18.08s1.94,12.69,5.83,16.41c3.89,3.72,9.36,6.78,16.41,9.16,7.05,2.39,15.41,5.14,25.08,8.25,10.33,3.22,20,6.75,28.99,10.58,9,3.83,16.27,8.64,21.83,14.41,5.55,5.78,8.33,13.28,8.33,22.49s-2.86,18.05-8.58,25.16c-5.72,7.11-13.22,12.58-22.49,16.41-9.28,3.83-19.19,5.69-29.74,5.58Z"/><path class="cls-5" d="M681.28,823.75v-101.73h59.65v12.21h-47.45v28.92h40.47v12.21h-40.47v48.39h-12.21Z"/><path class="cls-5" d="M825.48,825.64c-8.14,0-15.2-1.99-21.18-5.96-5.98-3.97-10.58-9.31-13.81-16.02-3.22-6.71-4.83-14.16-4.83-22.34v-59.29h12.21v59.29c0,5.81,1.08,11.17,3.23,16.06,2.15,4.89,5.28,8.79,9.37,11.7,4.09,2.91,9.09,4.36,15,4.36s11.04-1.47,15.11-4.4c4.07-2.93,7.16-6.83,9.26-11.7,2.11-4.87,3.16-10.21,3.16-16.02v-59.29h12.21v59.29c0,6.15-.92,11.9-2.76,17.26-1.84,5.35-4.49,10.06-7.96,14.13-3.46,4.07-7.64,7.24-12.53,9.52-4.89,2.28-10.39,3.41-16.49,3.41Z"/><path class="cls-5" d="M991.82,722.02v12.21h-33.86v89.52h-12.21v-89.52h-33.79v-12.21h79.86Z"/><path class="cls-5" d="M1078.32,825.64c-8.14,0-15.2-1.99-21.18-5.96-5.98-3.97-10.59-9.31-13.81-16.02-3.22-6.71-4.83-14.16-4.83-22.34v-59.29h12.21v59.29c0,5.81,1.08,11.17,3.23,16.06,2.15,4.89,5.28,8.79,9.37,11.7s9.09,4.36,15,4.36,11.04-1.47,15.11-4.4c4.07-2.93,7.16-6.83,9.26-11.7,2.11-4.87,3.16-10.21,3.16-16.02v-59.29h12.21v59.29c0,6.15-.92,11.9-2.76,17.26-1.84,5.35-4.49,10.06-7.96,14.13-3.46,4.07-7.64,7.24-12.53,9.52-4.89,2.28-10.39,3.41-16.49,3.41Z"/><path class="cls-5" d="M1172.45,823.75v-101.73h35.75c5.42,0,10.33,1.33,14.71,4,4.38,2.66,7.87,6.26,10.46,10.79,2.59,4.53,3.89,9.58,3.89,15.15,0,4.89-.97,9.35-2.91,13.37-1.94,4.02-4.59,7.38-7.96,10.06-3.37,2.69-7.18,4.54-11.44,5.56l24.71,42.8h-14.1l-24.27-41.78h-16.64v41.78h-12.21Zm12.21-53.99h22.31c3.29,0,6.32-.81,9.08-2.43,2.76-1.62,4.95-3.83,6.58-6.61,1.62-2.78,2.43-5.92,2.43-9.41s-.81-6.7-2.43-9.48c-1.62-2.78-3.82-4.99-6.58-6.61-2.76-1.62-5.79-2.43-9.08-2.43h-22.31v36.98Z"/><path class="cls-5" d="M1289.56,823.75v-101.73h62.42v12.21h-50.21v28.92h41.13v12.21h-41.13v36.18h50.21v12.21h-62.42Z"/><path class="cls-5" d="M1433.68,825.64c-5.47,0-10.75-.86-15.84-2.58-5.09-1.72-9.53-4.18-13.33-7.37-3.8-3.2-6.5-7-8.1-11.41l11.41-4.29c.97,2.71,2.77,5.08,5.41,7.08,2.64,2.01,5.75,3.57,9.34,4.69,3.58,1.11,7.29,1.67,11.12,1.67,4.36,0,8.42-.71,12.17-2.14,3.75-1.43,6.79-3.43,9.12-5.99,2.32-2.57,3.49-5.57,3.49-9.01s-1.21-6.43-3.63-8.68c-2.42-2.25-5.52-4.04-9.3-5.38-3.78-1.33-7.73-2.36-11.84-3.09-7.02-1.16-13.31-2.82-18.86-4.98-5.55-2.15-9.93-5.17-13.15-9.05-3.22-3.87-4.83-8.99-4.83-15.33,0-5.91,1.71-11.07,5.12-15.48,3.41-4.41,7.93-7.82,13.55-10.25,5.62-2.42,11.67-3.63,18.16-3.63,5.38,0,10.6,.84,15.66,2.51,5.06,1.67,9.53,4.11,13.41,7.3,3.87,3.2,6.66,7.1,8.36,11.7l-11.55,4.21c-.97-2.76-2.77-5.15-5.41-7.16-2.64-2.01-5.74-3.56-9.3-4.65-3.56-1.09-7.28-1.64-11.15-1.64-4.31-.05-8.33,.65-12.06,2.11-3.73,1.45-6.76,3.46-9.08,6.03-2.33,2.57-3.49,5.55-3.49,8.94,0,4.07,1.08,7.18,3.23,9.34,2.16,2.16,5.1,3.77,8.83,4.83,3.73,1.07,7.92,2.01,12.57,2.83,6.59,1.11,12.69,2.87,18.31,5.27,5.62,2.4,10.14,5.58,13.55,9.55,3.41,3.97,5.12,8.87,5.12,14.68s-1.71,11.07-5.12,15.48c-3.42,4.41-7.93,7.82-13.55,10.25-5.62,2.42-11.72,3.63-18.31,3.63Z"/></g><g><path class="cls-15" d="M392.23,649.36h-.5c-1.87-.09-3.74-.18-5.58-.29l1.53-25.28c1.59,.1,3.19,.18,4.8,.24,2.18,0,4.36-.05,6.52-.13l.98,25.3c-2.57,.1-5.15,.15-7.75,.15Z"/><path class="cls-15" d="M369.66,647.54c-4.41-.56-8.83-1.24-13.13-2.03l4.57-24.91c3.84,.7,7.78,1.31,11.73,1.81l-3.17,25.13Z"/><path class="cls-15" d="M546.67,374.91c1.67,3.35,3.25,6.79,4.68,10.2l22.91-9.56c-1.67-3.98-3.49-7.92-5.39-11.74l-22.2,11.1Z"/><path class="cls-15" d="M533.12,352.28c2.18,3.09,4.26,6.24,6.19,9.38l21.17-12.96c-2.21-3.61-4.6-7.23-7.11-10.78l-20.25,14.36Z"/><path class="cls-15" d="M516.27,331.95c2.57,2.66,5.11,5.46,7.55,8.33l18.96-16.03c-2.74-3.24-5.66-6.46-8.67-9.58l-17.83,17.27Z"/><path class="cls-15" d="M505.26,321.51l16.3-18.72c-3.23-2.81-6.61-5.55-10.03-8.15l-14.99,19.78c2.96,2.25,5.9,4.64,8.72,7.1Z"/><path class="cls-15" d="M484.04,305.76l13.27-20.98c-3.61-2.28-7.37-4.48-11.17-6.54l-11.8,21.84c3.29,1.79,6.55,3.69,9.7,5.68Z"/><path class="cls-15" d="M460.69,293.44l9.91-22.76c-3.93-1.71-7.98-3.31-12.06-4.76l-8.31,23.39c3.51,1.26,7.03,2.64,10.45,4.13Z"/></g><g><g class="cls-3"><rect class="cls-2" x="182.24" y="227.51" width="262.53" height="418.81" transform="translate(17.7 -12.17) rotate(2.29)"/></g><g class="cls-6"><rect class="cls-2" x="182.24" y="227.51" width="262.53" height="418.81" transform="translate(17.7 -12.17) rotate(2.29)"/></g><g class="cls-9"><rect class="cls-2" x="182.24" y="227.51" width="262.53" height="418.81" transform="translate(17.7 -12.17) rotate(2.29)"/></g><g class="cls-8"><rect class="cls-2" x="182.24" y="227.51" width="262.53" height="418.81" transform="translate(17.7 -12.17) rotate(2.29)"/></g><g class="cls-7"><rect class="cls-2" x="182.24" y="227.51" width="262.53" height="418.81" transform="translate(17.7 -12.17) rotate(2.29)"/></g><g class="cls-13"><rect class="cls-2" x="182.24" y="227.51" width="262.53" height="418.81" transform="translate(17.7 -12.17) rotate(2.29)"/></g><g class="cls-12"><rect class="cls-2" x="182.24" y="227.51" width="262.53" height="418.81" transform="translate(17.7 -12.17) rotate(2.29)"/></g><g class="cls-10"><rect class="cls-2" x="182.24" y="227.51" width="262.53" height="418.81" transform="translate(17.7 -12.17) rotate(2.29)"/></g><g class="cls-11"><rect class="cls-2" x="182.24" y="227.51" width="262.53" height="418.81" transform="translate(17.7 -12.17) rotate(2.29)"/></g><g class="cls-14"><rect class="cls-2" x="182.24" y="227.51" width="262.53" height="418.81" transform="translate(17.7 -12.17) rotate(2.29)"/></g><g class="cls-20"><rect class="cls-2" x="182.24" y="227.51" width="262.53" height="418.81" transform="translate(17.7 -12.17) rotate(2.29)"/></g><g class="cls-25"><rect class="cls-2" x="182.24" y="227.51" width="262.53" height="418.81" transform="translate(17.7 -12.17) rotate(2.29)"/></g><g class="cls-19"><rect class="cls-2" x="182.24" y="227.51" width="262.53" height="418.81" transform="translate(17.7 -12.17) rotate(2.29)"/></g><g class="cls-18"><rect class="cls-2" x="182.24" y="227.51" width="262.53" height="418.81" transform="translate(17.7 -12.17) rotate(2.29)"/></g><g class="cls-17"><rect class="cls-2" x="182.24" y="227.51" width="262.53" height="418.81" transform="translate(17.7 -12.17) rotate(2.29)"/></g><g class="cls-21"><rect class="cls-2" x="182.24" y="227.51" width="262.53" height="418.81" transform="translate(17.7 -12.17) rotate(2.29)"/></g><g class="cls-23"><rect class="cls-2" x="182.24" y="227.51" width="262.53" height="418.81" transform="translate(17.7 -12.17) rotate(2.29)"/></g><g class="cls-22"><rect class="cls-2" x="182.24" y="227.51" width="262.53" height="418.81" transform="translate(17.7 -12.17) rotate(2.29)"/></g><g class="cls-26"><rect class="cls-2" x="182.24" y="227.51" width="262.53" height="418.81" transform="translate(17.7 -12.17) rotate(2.29)"/></g><g class="cls-24"><rect class="cls-2" x="182.24" y="227.51" width="262.53" height="418.81" transform="translate(17.7 -12.17) rotate(2.29)"/></g><g class="cls-16"><rect class="cls-2" x="182.24" y="227.51" width="262.53" height="418.81" transform="translate(17.7 -12.17) rotate(2.29)"/></g></g></svg>