<?xml version="1.0" encoding="UTF-8"?><svg id="Layer_1" xmlns="http://www.w3.org/2000/svg" xmlns:xlink="http://www.w3.org/1999/xlink" viewBox="0 0 2500 720"><defs><style>.cls-1{fill:none;}.cls-2{fill:url(#linear-gradient);}.cls-3{clip-path:url(#clippath);}.cls-4{fill:#fff;}.cls-5{clip-path:url(#clippath-1);}.cls-6{clip-path:url(#clippath-4);}.cls-7{clip-path:url(#clippath-3);}.cls-8{clip-path:url(#clippath-2);}.cls-9{clip-path:url(#clippath-7);}.cls-10{clip-path:url(#clippath-8);}.cls-11{clip-path:url(#clippath-6);}.cls-12{clip-path:url(#clippath-5);}.cls-13{clip-path:url(#clippath-9);}.cls-14{clip-path:url(#clippath-20);}.cls-15{clip-path:url(#clippath-14);}.cls-16{clip-path:url(#clippath-13);}.cls-17{clip-path:url(#clippath-12);}.cls-18{clip-path:url(#clippath-10);}.cls-19{clip-path:url(#clippath-15);}.cls-20{clip-path:url(#clippath-17);}.cls-21{clip-path:url(#clippath-16);}.cls-22{clip-path:url(#clippath-19);}.cls-23{clip-path:url(#clippath-11);}.cls-24{clip-path:url(#clippath-18);}.cls-25{fill:#0f3750;stroke:#071e2b;stroke-miterlimit:10;stroke-width:.39px;}</style><clipPath id="clippath"><path class="cls-1" d="M322.56,214.12l6.55,18.61c-2.89,1.01-5.75,2.13-8.52,3.32l-7.77-18.14c3.17-1.36,6.45-2.63,9.74-3.79Z"/></clipPath><linearGradient id="linear-gradient" x1="-1174.73" y1="508.23" x2="-866.83" y2="637" gradientTransform="translate(1198.7 -276.06) scale(.87 1.09)" gradientUnits="userSpaceOnUse"><stop offset="0" stop-color="#5bd8ae"/><stop offset=".49" stop-color="#4db9f4"/><stop offset=".99" stop-color="#6b6bf2"/></linearGradient><clipPath id="clippath-1"><path class="cls-1" d="M301.01,223.58l9.3,17.4c-2.68,1.43-5.32,2.97-7.87,4.57l-10.52-16.7c2.94-1.85,6-3.63,9.09-5.28Z"/></clipPath><clipPath id="clippath-2"><path class="cls-1" d="M281.13,236.36l11.99,15.67c-2.4,1.84-4.76,3.78-7,5.77l-13.11-14.75c2.61-2.32,5.34-4.57,8.12-6.7Z"/></clipPath><clipPath id="clippath-3"><path class="cls-1" d="M263.58,252.24l14.4,13.49c-2.05,2.19-4.06,4.5-5.96,6.85l-15.35-12.4c2.21-2.73,4.53-5.4,6.91-7.95Z"/></clipPath><clipPath id="clippath-4"><path class="cls-1" d="M248.89,270.77l16.41,10.96c-1.68,2.51-3.29,5.12-4.78,7.74l-17.15-9.77c1.72-3.03,3.58-6.03,5.52-8.93Z"/></clipPath><clipPath id="clippath-5"><path class="cls-1" d="M237.38,291.37l17.93,8.24c-1.27,2.75-2.45,5.59-3.53,8.43l-18.45-7.01c1.24-3.25,2.6-6.5,4.05-9.66Z"/></clipPath><clipPath id="clippath-6"><path class="cls-1" d="M229.2,313.45l18.97,5.44c-.84,2.93-1.59,5.92-2.24,8.89l-19.28-4.2c.74-3.38,1.59-6.79,2.55-10.13Z"/></clipPath><clipPath id="clippath-7"><path class="cls-1" d="M224.39,336.45l19.56,2.62c-.41,3.03-.72,6.11-.93,9.14l-19.68-1.38c.24-3.45,.6-6.94,1.06-10.38Z"/></clipPath><clipPath id="clippath-8"><path class="cls-1" d="M222.94,359.87l19.73-.2c.03,3.07,.16,6.15,.38,9.18l-19.68,1.44c-.25-3.44-.4-6.94-.43-10.42Z"/></clipPath><clipPath id="clippath-9"><path class="cls-1" d="M224.85,383.26l19.5-3.02c.47,3.03,1.04,6.07,1.69,9.02l-19.27,4.26c-.74-3.36-1.39-6.81-1.93-10.26Z"/></clipPath><clipPath id="clippath-10"><path class="cls-1" d="M230.12,406.16l18.85-5.84c.91,2.92,1.91,5.83,3,8.65l-18.42,7.07c-1.24-3.22-2.39-6.55-3.42-9.89Z"/></clipPath><clipPath id="clippath-11"><path class="cls-1" d="M238.76,428.08l17.75-8.63c1.33,2.75,2.77,5.46,4.27,8.07l-17.11,9.84c-1.72-3-3.38-6.12-4.91-9.27Z"/></clipPath><clipPath id="clippath-12"><path class="cls-1" d="M250.72,448.43l16.17-11.32c1.73,2.48,3.58,4.92,5.48,7.26l-15.3,12.46c-2.21-2.71-4.34-5.54-6.35-8.41Z"/></clipPath><clipPath id="clippath-13"><path class="cls-1" d="M265.84,466.65l14.1-13.81c2.11,2.16,4.33,4.26,6.59,6.25l-13.04,14.81c-2.62-2.3-5.19-4.74-7.64-7.25Z"/></clipPath><clipPath id="clippath-14"><path class="cls-1" d="M292.46,488.02c-2.97-1.85-5.9-3.83-8.71-5.89l11.63-15.94c2.43,1.77,4.96,3.48,7.53,5.08l-10.44,16.74Z"/></clipPath><clipPath id="clippath-15"><path class="cls-1" d="M313.4,498.87c-3.21-1.36-6.41-2.84-9.5-4.41l8.92-17.6c2.7,1.37,5.48,2.66,8.28,3.84l-7.69,18.17Z"/></clipPath><clipPath id="clippath-16"><path class="cls-1" d="M335.63,506.41c-3.37-.88-6.73-1.87-10-2.95l6.17-18.74c2.88,.95,5.84,1.82,8.81,2.59l-4.98,19.09Z"/></clipPath><clipPath id="clippath-17"><path class="cls-1" d="M340.08,229.36l-5.06-19.07c3.29-.87,6.7-1.67,10.12-2.36l3.91,19.34c-3.04,.62-6.06,1.32-8.97,2.09Z"/></clipPath><clipPath id="clippath-18"><path class="cls-1" d="M360.45,225.39l-2.53-19.57c3.36-.43,6.81-.79,10.26-1.06l1.51,19.67c-3.11,.24-6.22,.56-9.24,.95Z"/></clipPath><clipPath id="clippath-19"><path class="cls-1" d="M389.96,224.76c-3.01-.31-6.08-.52-9.11-.62l.68-19.72c3.48,.12,7,.36,10.45,.71l-2.01,19.63Z"/></clipPath><clipPath id="clippath-20"><path class="cls-1" d="M410.16,228.41c-2.93-.77-5.93-1.44-8.91-2.01l3.68-19.39c3.42,.65,6.86,1.42,10.22,2.3l-4.99,19.09Z"/></clipPath></defs><g><path class="cls-4" d="M527.28,330.51h11.16v181.7h-11.16v-91.76h-105.77v91.76h-11.16v-181.7h11.16v78.78h105.77v-78.78Z"/><path class="cls-4" d="M633.24,515.58c-11.94,0-22.82-3.07-32.63-9.21-9.83-6.14-17.65-14.39-23.49-24.72-5.84-10.34-8.76-21.78-8.76-34.33,0-9.52,1.69-18.41,5.07-26.67,3.37-8.26,8.02-15.53,13.95-21.8,5.92-6.27,12.83-11.18,20.7-14.73,7.88-3.55,16.27-5.32,25.18-5.32,9.35,0,17.98,1.8,25.89,5.38,7.92,3.59,14.78,8.65,20.57,15.19,5.8,6.53,10.28,14.28,13.43,23.23,3.16,8.95,4.7,18.8,4.61,29.53h-117.84c.87,10.04,3.79,18.97,8.76,26.8,4.98,7.83,11.31,14.04,19.01,18.62,7.7,4.59,16.23,6.88,25.57,6.88,10.3,0,19.55-2.72,27.77-8.18,8.22-5.45,14.75-12.93,19.6-22.45l11.3,2.59c-5.19,11.51-13.03,20.92-23.49,28.23-10.48,7.31-22.19,10.97-35.18,10.97Zm-53.59-73.46h106.93c-.43-9.43-3.09-18.15-7.98-26.15s-11.3-14.43-19.21-19.27c-7.92-4.84-16.63-7.27-26.15-7.27s-18.3,2.36-26.08,7.07c-7.79,4.72-14.13,11.08-19.01,19.08-4.9,8.01-7.73,16.85-8.5,26.54Z"/><path class="cls-4" d="M835.72,382.42h11.16v129.78h-11.16l-.26-28.29c-4.5,9.43-11.03,17.07-19.6,22.91-8.56,5.84-18.81,8.76-30.76,8.76-9.43,0-18.27-1.77-26.54-5.32-8.26-3.55-15.52-8.48-21.8-14.8-6.27-6.31-11.19-13.58-14.73-21.8-3.55-8.22-5.32-17.09-5.32-26.61s1.77-18.28,5.32-26.54c3.54-8.26,8.44-15.51,14.67-21.74,6.23-6.23,13.45-11.12,21.67-14.67,8.22-3.55,17-5.32,26.34-5.32,12.12,0,22.5,2.92,31.15,8.76,8.65,5.84,15.36,13.52,20.12,23.04l-.26-28.16Zm-50.74,122.13c10.56,0,19.55-2.57,27-7.72,7.44-5.15,13.13-12.07,17.07-20.77,3.93-8.69,5.9-18.28,5.9-28.75s-1.99-20.44-5.97-29.14c-3.98-8.69-9.72-15.59-17.2-20.7-7.48-5.1-16.42-7.66-26.8-7.66s-20.03,2.58-28.69,7.72c-8.65,5.15-15.52,12.09-20.64,20.83-5.1,8.74-7.65,18.39-7.65,28.94s2.64,20.42,7.92,29.07c5.28,8.65,12.22,15.51,20.83,20.57,8.61,5.06,18.01,7.59,28.23,7.59Z"/><path class="cls-4" d="M879.12,512.21v-194.67h11.16v194.67h-11.16Z"/><path class="cls-4" d="M985.07,393.58h-34l-.25,118.62h-11.16l.25-118.62h-25.69v-11.16h25.69l-.25-40.75h11.16l.25,40.75h34v11.16Z"/><path class="cls-4" d="M1117.65,432.78v79.43h-11.16v-78.26c0-8.13-1.97-15.51-5.9-22.13s-9.23-11.92-15.89-15.9c-6.66-3.98-14.02-5.97-22.07-5.97s-15.53,1.99-22.19,5.97c-6.67,3.98-11.96,9.28-15.9,15.9s-5.9,14-5.9,22.13v78.26h-11.16v-194.67h11.16v86.05c4.67-7.53,10.99-13.54,18.95-18.04,7.96-4.5,16.65-6.75,26.09-6.75,9.94,0,19.01,2.42,27.19,7.27,8.18,4.85,14.69,11.36,19.53,19.53,4.85,8.18,7.27,17.24,7.27,27.19Z"/><path class="cls-4" d="M1188.73,512.21l-65.94-181.7h11.81l60.22,166.25,60.61-166.25h11.82l-66.2,181.7h-12.32Z"/><path class="cls-4" d="M1292.03,356.6c-1.99,0-3.71-.67-5.19-2.01-1.47-1.34-2.2-3.05-2.2-5.13s.73-3.89,2.2-5.19c1.48-1.3,3.2-1.95,5.19-1.95s3.71,.65,5.13,1.95c1.42,1.3,2.14,2.98,2.14,5.06s-.69,3.91-2.07,5.26-3.11,2.01-5.19,2.01Zm-5.71,25.83h11.16v129.78h-11.16v-129.78Z"/><path class="cls-4" d="M1372.78,514.8c-7.28-.09-14.39-1.36-21.36-3.83-6.96-2.47-13.02-5.82-18.17-10.06-5.15-4.24-8.67-8.95-10.57-14.15l9.99-4.28c1.56,4.24,4.56,8,9.02,11.29,4.45,3.29,9.54,5.86,15.24,7.72,5.72,1.86,11.16,2.79,16.35,2.79,6.32,0,12.2-1.08,17.65-3.24s9.89-5.21,13.31-9.15c3.42-3.94,5.12-8.5,5.12-13.69,0-5.54-1.79-9.91-5.38-13.11-3.59-3.2-8.16-5.79-13.69-7.79-5.54-1.99-11.29-3.89-17.26-5.71-9.69-2.86-18.01-5.71-24.98-8.56-6.97-2.86-12.31-6.45-16.03-10.77-3.72-4.32-5.58-10.12-5.58-17.39s2.21-14.04,6.62-19.53c4.42-5.49,10.19-9.75,17.33-12.78,7.14-3.03,14.78-4.54,22.91-4.54,10.73,0,20.45,2.36,29.14,7.07,8.7,4.71,14.73,10.88,18.11,18.49l-9.35,5.45c-1.73-4.24-4.59-7.87-8.56-10.9-3.98-3.03-8.53-5.39-13.63-7.07-5.1-1.69-10.2-2.53-15.32-2.53-6.4,0-12.37,1.04-17.9,3.11-5.54,2.08-10.02,5.08-13.43,9.02-3.43,3.94-5.13,8.63-5.13,14.08s1.51,9.88,4.54,12.78c3.03,2.9,7.28,5.28,12.78,7.14,5.49,1.86,12.01,4,19.54,6.43,8.04,2.51,15.57,5.26,22.58,8.24,7,2.98,12.67,6.73,17,11.23,4.32,4.5,6.48,10.34,6.48,17.52s-2.23,14.06-6.68,19.6c-4.46,5.54-10.3,9.8-17.52,12.79-7.22,2.98-14.95,4.43-23.16,4.35Z"/><path class="cls-4" d="M1482.93,512.21v-100.94h59.19v12.11h-47.08v28.69h40.16v12.11h-40.16v48.02h-12.11Z"/><path class="cls-4" d="M1627.67,514.08c-8.07,0-15.08-1.97-21.01-5.91-5.94-3.94-10.5-9.24-13.7-15.9-3.19-6.66-4.79-14.05-4.79-22.17v-58.84h12.11v58.84c0,5.77,1.07,11.08,3.21,15.93,2.14,4.85,5.24,8.72,9.3,11.61,4.06,2.88,9.02,4.32,14.88,4.32s10.96-1.45,15-4.36c4.04-2.91,7.1-6.78,9.2-11.61,2.09-4.83,3.14-10.13,3.14-15.9v-58.84h12.11v58.84c0,6.1-.91,11.81-2.74,17.12-1.82,5.31-4.45,9.99-7.89,14.02-3.44,4.04-7.58,7.19-12.44,9.45-4.86,2.26-10.31,3.39-16.37,3.39Z"/><path class="cls-4" d="M1794.53,411.27v12.11h-33.6v88.83h-12.11v-88.83h-33.53v-12.11h79.23Z"/><path class="cls-4" d="M1882.18,514.08c-8.08,0-15.08-1.97-21.01-5.91-5.94-3.94-10.51-9.24-13.7-15.9-3.2-6.66-4.8-14.05-4.8-22.17v-58.84h12.12v58.84c0,5.77,1.06,11.08,3.21,15.93,2.14,4.85,5.24,8.72,9.29,11.61,4.07,2.88,9.02,4.32,14.89,4.32s10.96-1.45,15-4.36c4.03-2.91,7.09-6.78,9.19-11.61,2.09-4.83,3.14-10.13,3.14-15.9v-58.84h12.12v58.84c0,6.1-.91,11.81-2.74,17.12-1.83,5.31-4.46,9.99-7.9,14.02-3.43,4.04-7.58,7.19-12.43,9.45-4.86,2.26-10.31,3.39-16.37,3.39Z"/><path class="cls-4" d="M1977.1,512.21v-100.94h35.47c5.38,0,10.25,1.32,14.6,3.96,4.35,2.65,7.82,6.21,10.39,10.71,2.57,4.5,3.86,9.51,3.86,15.03,0,4.85-.96,9.28-2.88,13.27-1.92,3.99-4.55,7.32-7.9,9.99s-7.12,4.51-11.36,5.52l24.52,42.47h-13.99l-24.08-41.46h-16.52v41.46h-12.11Zm12.11-53.57h22.14c3.26,0,6.27-.8,9.01-2.42,2.74-1.61,4.91-3.8,6.53-6.56s2.42-5.88,2.42-9.34-.8-6.65-2.42-9.41c-1.61-2.76-3.79-4.95-6.53-6.56-2.74-1.61-5.74-2.41-9.01-2.41h-22.14v36.7Z"/><path class="cls-4" d="M2095,512.21v-100.94h61.93v12.11h-49.83v28.69h40.81v12.11h-40.81v35.91h49.83v12.11h-61.93Z"/><path class="cls-4" d="M2239.93,514.08c-5.44,0-10.67-.85-15.72-2.56-5.04-1.71-9.46-4.14-13.22-7.32-3.78-3.17-6.45-6.95-8.04-11.32l11.32-4.25c.96,2.69,2.75,5.03,5.37,7.03,2.61,1.99,5.71,3.55,9.26,4.65,3.56,1.11,7.24,1.66,11.03,1.66,4.33,0,8.35-.71,12.08-2.13,3.72-1.42,6.74-3.4,9.04-5.95,2.31-2.55,3.46-5.53,3.46-8.94s-1.2-6.38-3.61-8.62c-2.4-2.24-5.47-4.01-9.22-5.34-3.75-1.32-7.67-2.34-11.76-3.06-6.97-1.15-13.21-2.8-18.71-4.94-5.51-2.14-9.86-5.13-13.05-8.98-3.2-3.84-4.8-8.92-4.8-15.21,0-5.86,1.69-10.98,5.08-15.36,3.39-4.37,7.87-7.76,13.45-10.17,5.57-2.4,11.58-3.61,18.02-3.61,5.34,0,10.51,.83,15.54,2.49,5.02,1.66,9.46,4.07,13.3,7.25,3.85,3.17,6.61,7.04,8.29,11.61l-11.47,4.18c-.96-2.74-2.75-5.11-5.36-7.1-2.62-1.99-5.7-3.53-9.23-4.61-3.53-1.08-7.22-1.62-11.07-1.62-4.28-.05-8.27,.65-11.97,2.09-3.7,1.44-6.7,3.44-9.01,5.98-2.31,2.55-3.46,5.5-3.46,8.87,0,4.04,1.06,7.13,3.21,9.27,2.14,2.14,5.06,3.74,8.75,4.79,3.71,1.06,7.86,2,12.48,2.81,6.54,1.11,12.59,2.85,18.17,5.23,5.57,2.38,10.05,5.54,13.44,9.48s5.08,8.8,5.08,14.56-1.69,10.98-5.08,15.36c-3.39,4.37-7.87,7.76-13.44,10.17-5.58,2.4-11.64,3.61-18.17,3.61Z"/></g><path class="cls-25" d="M376.11,512.21h-.39c-1.46-.07-2.91-.14-4.35-.23l1.19-19.7c1.24,.07,2.49,.14,3.74,.19,1.7,0,3.39-.04,5.08-.1l.76,19.72c-2,.08-4.02,.12-6.04,.12Zm-17.58-1.42c-3.44-.43-6.88-.97-10.23-1.58l3.56-19.41c2.99,.55,6.07,1.02,9.14,1.41l-2.47,19.58Zm141.47-204.24c-1.16-2.78-2.44-5.57-3.8-8.29l17.65-8.83c1.56,3.12,3.03,6.33,4.36,9.52l-18.21,7.6Zm-9.34-18.27c-1.57-2.57-3.27-5.14-5.03-7.62l16.1-11.42c2.02,2.85,3.96,5.79,5.77,8.74l-16.83,10.3Zm-12.03-16.65c-1.95-2.3-4.01-4.58-6.13-6.77l14.17-13.73c2.43,2.51,4.79,5.12,7.03,7.76l-15.07,12.74Zm-14.42-14.63c-2.29-2-4.68-3.94-7.09-5.77l11.92-15.72c2.77,2.1,5.5,4.32,8.13,6.61l-12.95,14.88Zm-16.49-12.28c-2.56-1.62-5.21-3.17-7.88-4.62l9.38-17.36c3.07,1.66,6.11,3.44,9.05,5.3l-10.55,16.68Zm-18.16-9.61c-2.77-1.21-5.63-2.34-8.49-3.35l6.6-18.59c3.29,1.17,6.58,2.47,9.77,3.86l-7.88,18.09Z"/><g><g class="cls-3"><rect class="cls-2" x="212.49" y="183.5" width="204.57" height="326.35" transform="translate(14.09 -12.29) rotate(2.29)"/></g><g class="cls-5"><rect class="cls-2" x="212.49" y="183.5" width="204.57" height="326.35" transform="translate(14.09 -12.29) rotate(2.29)"/></g><g class="cls-8"><rect class="cls-2" x="212.49" y="183.5" width="204.57" height="326.35" transform="translate(14.09 -12.29) rotate(2.29)"/></g><g class="cls-7"><rect class="cls-2" x="212.49" y="183.5" width="204.57" height="326.35" transform="translate(14.09 -12.29) rotate(2.29)"/></g><g class="cls-6"><rect class="cls-2" x="212.49" y="183.5" width="204.57" height="326.35" transform="translate(14.09 -12.29) rotate(2.29)"/></g><g class="cls-12"><rect class="cls-2" x="212.49" y="183.5" width="204.57" height="326.35" transform="translate(14.09 -12.29) rotate(2.29)"/></g><g class="cls-11"><rect class="cls-2" x="212.49" y="183.5" width="204.57" height="326.35" transform="translate(14.09 -12.29) rotate(2.29)"/></g><g class="cls-9"><rect class="cls-2" x="212.49" y="183.5" width="204.57" height="326.35" transform="translate(14.09 -12.29) rotate(2.29)"/></g><g class="cls-10"><rect class="cls-2" x="212.49" y="183.5" width="204.57" height="326.35" transform="translate(14.09 -12.29) rotate(2.29)"/></g><g class="cls-13"><rect class="cls-2" x="212.49" y="183.5" width="204.57" height="326.35" transform="translate(14.09 -12.29) rotate(2.29)"/></g><g class="cls-18"><rect class="cls-2" x="212.49" y="183.5" width="204.57" height="326.35" transform="translate(14.09 -12.29) rotate(2.29)"/></g><g class="cls-23"><rect class="cls-2" x="212.49" y="183.5" width="204.57" height="326.35" transform="translate(14.09 -12.29) rotate(2.29)"/></g><g class="cls-17"><rect class="cls-2" x="212.49" y="183.5" width="204.57" height="326.35" transform="translate(14.09 -12.29) rotate(2.29)"/></g><g class="cls-16"><rect class="cls-2" x="212.49" y="183.5" width="204.57" height="326.35" transform="translate(14.09 -12.29) rotate(2.29)"/></g><g class="cls-15"><rect class="cls-2" x="212.49" y="183.5" width="204.57" height="326.35" transform="translate(14.09 -12.29) rotate(2.29)"/></g><g class="cls-19"><rect class="cls-2" x="212.49" y="183.5" width="204.57" height="326.35" transform="translate(14.09 -12.29) rotate(2.29)"/></g><g class="cls-21"><rect class="cls-2" x="212.49" y="183.5" width="204.57" height="326.35" transform="translate(14.09 -12.29) rotate(2.29)"/></g><g class="cls-20"><rect class="cls-2" x="212.49" y="183.5" width="204.57" height="326.35" transform="translate(14.09 -12.29) rotate(2.29)"/></g><g class="cls-24"><rect class="cls-2" x="212.49" y="183.5" width="204.57" height="326.35" transform="translate(14.09 -12.29) rotate(2.29)"/></g><g class="cls-22"><rect class="cls-2" x="212.49" y="183.5" width="204.57" height="326.35" transform="translate(14.09 -12.29) rotate(2.29)"/></g><g class="cls-14"><rect class="cls-2" x="212.49" y="183.5" width="204.57" height="326.35" transform="translate(14.09 -12.29) rotate(2.29)"/></g></g></svg>