<?xml version="1.0" encoding="UTF-8"?>
<svg xmlns="http://www.w3.org/2000/svg" xmlns:xlink="http://www.w3.org/1999/xlink" viewBox="0 0 873 486">
  <defs>
    <style>
      .cls-1 {
        fill: lime;
      }

      .cls-2 {
        fill: aqua;
      }

      .cls-3 {
        fill: blue;
      }

      .cls-4 {
        fill: #ff0;
      }

      .cls-5 {
        fill: red;
      }

      .cls-6 {
        fill: #f0f;
      }

      .cls-7 {
        mix-blend-mode: multiply;
      }

      .cls-8 {
        fill: url(#radial-gradient);
      }

      .cls-9 {
        isolation: isolate;
      }
    </style>
    <radialGradient id="radial-gradient" cx="436.5" cy="327.99" fx="425.63" fy="327.99" r="354.52" gradientUnits="userSpaceOnUse">
      <stop offset="0" stop-color="#0000fd"/>
      <stop offset="1" stop-color="#14127f"/>
    </radialGradient>
  </defs>
  <g class="cls-9">
    <g id="Layer_1" data-name="Layer 1">
      <g class="cls-7">
        <g>
          <path class="cls-8" d="m226.16,333.38c-.68,2.63-3.84,12.5-14.3,12.5-5.65,0-8.66-3.09-9.86-4.97-.38-.53-.53-.83-.98-1.88v25.07h-4.37v-54.95h4.37v5.87c.53-1.2.9-1.81,1.36-2.33,1.28-1.73,4.21-4.29,9.48-4.29,3.84,0,6.1,1.05,7.45,1.88,5.5,3.46,7.6,10.91,7.6,16.94,0,1.2-.08,3.31-.75,6.17Zm-4.82-13.1c-2.18-6.85-7.45-7.83-10.24-7.83-1.58,0-3.31.38-4.67,1.13-2.71,1.51-4.29,4.59-4.89,7.45-.38,1.88-.45,3.69-.53,5.57-.15,4.52.08,9.71,3.91,12.87,2.41,2.03,5.04,2.11,6.25,2.11,8.28,0,11.14-8.05,11.14-14.98,0-1.13-.08-3.54-.98-6.32Z"/>
          <path class="cls-8" d="m265.15,334.13c-2.26,7.23-7.9,11.82-15.51,11.82-2.48,0-8.2-.45-12.42-6.02-1.58-2.18-3.69-6.02-3.69-12.42,0-1.58.08-5.12,1.66-9.11,3.54-9.11,11.22-10.16,14.75-10.16,4.14,0,7.53,1.2,10.54,3.99,3.99,3.84,5.57,9.33,5.65,14.68,0,1.2,0,4.06-.98,7.23Zm-15.28-22.13c-1.13,0-3.91.15-6.47,2.03-2.79,2.11-5.12,6.02-5.12,13.47,0,1.35-.15,8.58,4.74,12.42,1.13.9,3.24,2.11,6.7,2.11,5.27,0,11.59-3.31,11.67-14.68.15-11.67-5.8-15.36-11.52-15.36Z"/>
          <path class="cls-8" d="m298.72,339.7c-1.43,2.71-5.04,6.25-12.27,6.25-2.18,0-8.05-.3-12.04-5.42-1.13-1.43-1.73-2.71-2.41-4.22l4.37-1.51c.6,2.48,3.31,7.08,10.01,7.08,3.39,0,5.57-.98,6.62-1.81,1.58-1.2,2.56-3.31,2.56-5.19,0-1.13-.38-2.26-.98-3.16-1.13-1.58-2.94-2.48-6.77-3.31-3.54-.83-9.11-1.43-11.67-4.52-1.2-1.51-1.96-3.69-1.88-5.65,0-1.13.38-4.59,3.09-7,2.41-2.26,6.62-3.01,9.79-3.01,1.05,0,5.5,0,8.81,2.33,2.79,1.96,3.61,4.59,3.92,5.8l-4.22,1.13c-.83-4.14-5.12-5.34-8.73-5.34-2.94,0-4.89.68-5.87,1.35-.3.15-1.05.75-1.58,1.58-.75,1.28-.83,2.56-.83,3.09,0,4.22,4.44,5.19,7.53,5.8l3.76.75c3.24.68,6.25,1.88,8.21,4.67,1.66,2.26,1.73,4.44,1.73,5.5,0,.75-.08,2.79-1.13,4.82Z"/>
          <path class="cls-8" d="m309.56,300.71v-6.85h4.37v6.85h-4.37Zm0,44.33v-35.9h4.37v35.9h-4.37Z"/>
          <path class="cls-8" d="m334.7,345.72c-.38,0-.83,0-1.21-.08-.98-.08-3.69-.3-4.74-3.16-.6-1.58-.53-5.42-.53-7.15v-22.43h-7.53v-3.76h7.53v-15.28h4.29v15.28h7.9v3.76h-7.9v23.64c-.08,2.11-.08,5.27,2.94,5.27,1.81,0,3.61-1.28,4.97-2.26v4.52c-.98.68-2.79,1.66-5.72,1.66Z"/>
          <path class="cls-8" d="m347.19,300.71v-6.85h4.37v6.85h-4.37Zm0,44.33v-35.9h4.37v35.9h-4.37Z"/>
          <path class="cls-8" d="m373.99,345.04h-3.61l-12.42-35.9h4.44l9.94,29.21,11.06-29.21h4.37l-13.78,35.9Z"/>
          <path class="cls-8" d="m421.86,340.23c-1.96,2.33-5.5,5.72-12.8,5.72-1.28,0-4.89-.08-8.28-1.88-8.58-4.44-8.88-14.98-8.88-17.31,0-1.2,0-4.14,1.13-7.3,2.33-6.77,8.2-11.22,15.43-11.22,2.18,0,7.38.45,11.52,5.12,2.86,3.24,4.67,8.28,4.67,12.65v1.13h-27.85c-.08,2.94.3,4.74.68,6.02.75,2.86,3.31,8.81,11.52,8.73,3.16,0,8.13-.75,11.52-7.53l4.14,1.2c-.38.75-1.28,2.79-2.78,4.67Zm-13.47-28c-6.25,0-9.18,4.29-10.16,6.25-.68,1.51-1.13,3.39-1.35,4.97h22.66c-1.05-9.26-7.23-11.22-11.14-11.22Z"/>
          <path class="cls-8" d="m445.8,313.81v17.61c0,1.58-.08,2.48.3,3.16.68,1.28,2.48,1.28,2.71,1.28,1.35,0,2.71-.08,4.06-.08v8.96c-.75.15-3.46.6-6.1.6-.83,0-1.66,0-2.41-.08-1.05-.08-4.52,0-7.15-2.41-3.01-2.63-2.86-6.62-2.86-10.24v-18.89h-5.72v-7.08h5.72v-12.27h11.44v12.34h7.68v7.08h-7.68Z"/>
          <path class="cls-8" d="m469.96,327.81c0,.38-.08,1.28.15,2.33.9,4.59,4.14,7.45,8.81,7.45.68,0,2.18-.08,3.76-.68,3.91-1.35,5.65-5.34,6.17-6.32l8.73,4.52c-1.58,2.33-2.41,3.39-3.31,4.44-5.8,6.4-13.32,6.92-16.26,6.92-1.2,0-3.99-.08-7.08-1.05-8.73-2.71-12.8-10.39-12.8-19.27,0-2.41.15-9.71,5.04-15.36,2.41-2.71,6.55-6.25,15.13-6.25,2.63,0,10.46.3,15.36,7.15,4.44,6.1,4.29,14.23,4.37,16.11h-28.08Zm11.82-14.23c-1.58-.75-2.86-.75-3.54-.75-4.59,0-6.7,3.39-7.3,4.74-.3.68-.6,1.51-.9,3.01h16.03c-.15-1.28-.38-5.27-4.29-7Z"/>
          <path class="cls-8" d="m537.85,339.55c-5.19,6.1-11.89,6.77-14.75,6.77-1.73,0-5.19-.23-9.18-2.18-7.38-3.61-10.31-10.61-10.31-18.44,0-1.81.08-5.57,1.96-9.94,4.44-10.31,14.15-11.14,17.76-11.14,3.09,0,10.01.6,15.28,7.23.45.6.75,1.05,1.5,2.26l-8.58,4.89c-.08-.23-.68-1.43-1.28-2.26-.68-.83-2.86-3.24-6.4-3.24-.83,0-2.48.08-4.22,1.35-3.99,3.01-4.14,9.71-4.14,10.46,0,3.39,1.13,7.75,3.76,9.94.75.6,2.41,1.88,4.97,1.88,3.76-.08,5.8-2.56,6.47-3.54.38-.6.68-1.05,1.13-2.33l8.73,4.52c-.83,1.28-1.73,2.63-2.71,3.76Z"/>
          <path class="cls-8" d="m570.59,345.04v-20.55c0-3.01.15-7-2.71-8.96-.98-.68-2.11-.98-3.24-.98-.6,0-2.11.15-3.46,1.05-2.48,1.73-2.79,4.44-2.79,9.86v19.57h-11.59v-53.14h11.59l.08,17.99c.23-.23,1.21-1.35,2.26-2.11,3.61-2.79,7.23-3.09,8.88-3.09,5.27,0,8.28,2.48,9.56,3.91.83.9,1.5,2.03,1.88,3.16.68,1.73,1.05,3.69,1.05,7.45v25.82h-11.52Z"/>
          <path class="cls-8" d="m592.72,345.04v-53.14h4.52v53.14h-4.52Z"/>
          <path class="cls-8" d="m631.78,343.16c-1.43-1.43-1.5-2.94-1.58-4.67-.45,1.13-1.05,2.18-1.88,3.09-1.43,1.66-5.19,4.22-10.84,4.22-4.59,0-7.08-1.58-8.58-3.09-.9-.9-2.71-3.24-2.71-6.7,0-1.05.15-3.46,1.96-5.65,2.71-3.31,7.15-4.37,11.06-5.5,2.26-.6,4.52-1.28,6.77-1.73l4.21-.9v-1.88c0-1.35.08-2.11-.38-3.46-.75-2.33-2.79-4.82-8.2-4.74-4.59,0-6.93,1.28-8.13,3.09-1.13,1.73-1.28,3.61-1.35,5.57l-4.89-.83c.15-.75.6-3.84,2.11-6.25,1.66-2.48,5.19-5.49,11.97-5.49,3.61,0,8.51.9,10.99,3.84,2.41,2.86,2.18,6.7,2.18,10.16v11.52c0,3.46-.08,5.87,1.2,6.92,1.13.9,2.94.83,4.14.83v3.54c-4.21,0-6.55-.38-8.05-1.88Zm-1.58-17.09l-2.26.6c-7,1.88-13.02,3.31-15.21,4.89-1.35.98-2.26,2.63-2.26,4.37,0,1.2.53,2.26.68,2.56,1.66,3.31,5.72,3.39,6.55,3.39,4.37,0,9.71-2.63,11.52-6.77.68-1.51.98-3.01.98-6.32v-2.71Z"/>
          <path class="cls-8" d="m672.73,340.53c-1.13,1.58-2.41,2.56-3.01,2.94-1.35.98-3.91,2.41-8.13,2.41-1.43,0-4.06-.08-7-2.03-.53-.3-1.73-1.2-2.79-2.71-.6-.75-1.05-1.58-1.43-2.48v6.4h-4.29v-53.14h4.29v23.33c.23-.53.53-.98.83-1.51,1.2-1.81,4.37-5.34,10.16-5.34,5.04,0,7.83,2.26,9.26,3.61,4.14,3.99,5.72,10.09,5.72,15.66,0,1.51-.08,8.05-3.61,12.87Zm-1.88-19.27c-1.88-7.38-6.85-8.88-10.16-8.88-2.71,0-4.44.9-5.34,1.51-2.86,1.88-4.97,5.8-4.97,13.1,0,3.31.45,5.42.83,6.77.6,2.18,2.63,8.13,9.86,8.13,1.58,0,5.5-.23,8.05-3.99,1.13-1.73,2.41-5.12,2.48-10.09,0-1.05,0-3.69-.75-6.55Z"/>
        </g>
      </g>
      <g>
        <path class="cls-4" d="m573.52,185.7c10.55,6.1,10.55,21.32,0,27.41l-5.85,3.37-13.66-23.66,4.26-15.92,15.25,8.8Z"/>
        <path class="cls-3" d="m571.05,222.33c6.09,10.55-1.52,23.74-13.71,23.74h-17.6l4.26-15.92,23.67-13.67,3.38,5.85Z"/>
        <path class="cls-5" d="m543.45,140.52c11.76-3.16,22.53,7.61,19.38,19.38l-4.56,17-20.18-11.65-11.65-20.17,17.01-4.56Z"/>
        <polygon class="cls-1" points="558.27 176.9 554.01 192.82 538.09 165.25 558.27 176.9"/>
        <path class="cls-2" d="m538.09,165.25l15.92,27.57-10.01,37.33-27.57,15.92h-31.82l-27.33-27.33v-31.84l15.91-27.56,37.34-10,27.56,15.91Zm2.42,34.16c0-5.68-4.39-10.31-9.78-10.31h-16.73v-17.19c0-5.83-4.53-10.61-10.06-10.61s-10.07,4.78-10.07,10.61v17.19h-16.73c-5.38,0-9.78,4.63-9.78,10.31s4.4,10.31,9.78,10.31h16.73v17.19c0,5.83,4.54,10.61,10.07,10.61s10.06-4.78,10.06-10.61v-17.19h16.73c5.39,0,9.78-4.63,9.78-10.31Z"/>
        <polygon class="cls-6" points="544 230.15 539.74 246.07 516.43 246.07 544 230.15"/>
        <path class="cls-5" d="m539.74,246.07l-4.56,17c-3.15,11.77-17.86,15.71-26.47,7.1l-12.45-12.45,20.17-11.65h23.31Z"/>
        <polygon class="cls-6" points="526.44 145.08 538.09 165.25 510.53 149.34 526.44 145.08"/>
        <path class="cls-3" d="m517.64,129.83l8.8,15.25-15.91,4.26-23.67-13.67,3.37-5.84c6.09-10.55,21.32-10.55,27.41,0Z"/>
        <polygon class="cls-1" points="516.43 246.07 496.26 257.72 484.61 246.07 516.43 246.07"/>
        <path class="cls-4" d="m496.26,257.72l-15.25,8.8c-10.55,6.09-23.73-1.52-23.73-13.7v-6.75h27.33l11.65,11.65Z"/>
        <path class="cls-4" d="m486.86,135.67l-13.67,23.67-15.91,4.26v-17.6c0-12.18,13.18-19.79,23.73-13.7l5.85,3.37Z"/>
        <polygon class="cls-1" points="473.19 159.34 457.28 186.9 457.28 163.6 473.19 159.34"/>
        <path class="cls-3" d="m457.28,218.74v27.33h-6.75c-12.18,0-19.8-13.19-13.71-23.74l8.8-15.25,11.66,11.66Z"/>
        <polygon class="cls-6" points="457.28 186.9 457.28 218.74 445.62 207.08 457.28 186.9"/>
        <path class="cls-5" d="m457.28,163.6v23.3l-11.66,20.18-12.44-12.44c-8.61-8.62-4.67-23.32,7.09-26.48l17.01-4.56Z"/>
      </g>
    </g>
  </g>
</svg>